<svg width="511" height="298" viewBox="0 0 511 298" fill="none" xmlns="http://www.w3.org/2000/svg">
<path fill-rule="evenodd" clip-rule="evenodd" d="M254.625 108.948C231.253 111.204 208.845 89.261 209.175 63.408C209.502 37.879 229.459 18.265 255.424 18.207C280.654 18.15 300.656 38.682 300.932 64.714C301.165 86.771 279.417 111.771 254.625 108.948ZM246.034 67.005C249.959 72.766 253.152 74.181 258.168 72.557C262.375 71.197 264.101 68.759 264.113 64.163C264.128 58.743 261.663 56.028 254.998 54.119C247.356 56.236 245.566 58.756 246.034 67.005Z" fill="white"/>
<path fill-rule="evenodd" clip-rule="evenodd" d="M286.934 197.932C288.007 197.143 289.131 196.411 290.145 195.55C292.171 193.826 294.463 192.279 296.049 190.204C298.459 187.052 297.978 184.13 294.653 181.904C292.174 180.245 289.313 179.008 286.462 178.083C274.375 174.163 262.235 170.41 250.102 166.636C243.446 164.566 236.807 162.429 230.086 160.588C221.708 158.295 214.756 153.994 209.215 147.256C201.239 137.554 201.46 118.394 211.417 109.235C214.1 106.768 216.409 103.813 220.768 103.586C218.446 105.801 216.125 108.016 213.723 110.307C213.723 112.161 213.723 113.916 213.723 115.702C216.145 119.341 220.083 120.285 223.801 121.446C243.458 127.588 263.149 133.617 282.805 139.76C285.184 140.503 287.481 141.582 289.714 142.708C300.639 148.218 306.002 157.493 306.942 169.355C307.834 180.636 299.991 193.695 290.005 198.348C289.26 198.696 288.429 198.858 287.638 199.106C287.402 198.714 287.168 198.323 286.934 197.932Z" fill="white"/>
<path fill-rule="evenodd" clip-rule="evenodd" d="M102.914 217.553C100.001 217.553 97.528 217.553 94.542 217.553C91.377 214.347 87.254 212.534 81.427 213.909C80.315 214.613 78.51 215.757 76.985 216.723C72.183 225.585 72.208 226.326 77.382 234.003C84.701 238.495 89.029 238.184 94.312 232.407C90.047 231.01 85.707 232.523 81.351 231.228C81.351 229.19 81.351 227.205 81.351 224.766C89.395 223.892 96.968 224.055 104.378 224.583C106.894 232.164 101.308 239.703 91.613 243.595C84.112 246.606 70.481 242.894 66.513 230.919C63.803 222.738 67.167 212.62 77.397 207.775C87.086 203.19 99.125 207.295 102.914 217.553Z" fill="white"/>
<path fill-rule="evenodd" clip-rule="evenodd" d="M364.719 207.35C367.51 207.35 369.937 207.35 372.81 207.35C376.806 214.289 380.89 221.381 384.974 228.473C386.248 221.741 385.596 214.921 386.17 208.461C388.895 206.462 391.215 206.719 393.508 207.73C394.894 212.069 395.01 237.705 393.566 243.148C391.398 243.328 389.009 243.526 386.065 243.77C381.588 236.072 377.215 228.554 372.842 221.036C372.605 221.053 372.365 221.07 372.126 221.087C372.126 228.233 372.126 235.377 372.126 243.082C369.404 243.082 367.26 243.082 364.719 243.082C364.719 231.176 364.719 219.456 364.719 207.35Z" fill="white"/>
<path fill-rule="evenodd" clip-rule="evenodd" d="M144.131 244.716C132.8 244.129 123.812 237.03 124.202 225.206C124.602 213.04 131.169 206.297 143.223 206.201C155.523 206.104 161.999 213.181 162.649 225.42C163.193 235.652 154.096 244.571 144.131 244.716ZM146.801 236.846C153.477 232.757 156.415 227.308 154.696 222.201C152.629 216.058 148.414 213.11 142.235 213.479C136.495 213.822 133.58 217.374 131.777 226.219C134.557 235.355 137.761 237.623 146.801 236.846Z" fill="white"/>
<path fill-rule="evenodd" clip-rule="evenodd" d="M185.606 243.212C185.606 230.885 185.606 219.296 185.606 207.183C193.459 207.258 201.233 204.745 207.263 213.163C206.839 216.146 206.325 219.762 205.694 224.207C205.729 224.25 206.38 225.077 207.047 225.889C207.613 226.578 208.199 227.251 208.898 228.075C208.985 229.406 209.156 230.826 209.158 232.246C209.167 238.555 206.509 242.389 200.455 243.335C195.563 244.098 190.505 244.067 185.606 243.212ZM200.131 230.299C198.136 228.754 196.006 227.901 193.456 229.336C193.456 231.554 193.456 233.581 193.456 235.565C199.143 236.016 199.851 235.44 200.131 230.299ZM198.023 219.406C197.639 214.694 197.639 214.694 193.366 215.419C193.366 217.03 193.366 218.672 193.366 220.71C195.101 220.224 196.395 219.861 198.023 219.406Z" fill="white"/>
<path fill-rule="evenodd" clip-rule="evenodd" d="M441.674 210.438C442.32 212.234 443.032 214.215 443.757 216.227C441.561 218.557 439.232 217.471 436.697 217.632C435.536 216.271 434.385 214.924 433.317 213.672C429.067 214.53 429.067 214.53 429.909 218.895C432.45 219.987 435.149 220.918 437.627 222.262C442.063 224.665 444.464 228.277 444.215 233.616C443.956 239.144 440.641 241.995 436.068 243.869C431.625 245.69 427.609 244.603 424.181 241.429C421.983 239.394 419.312 237.422 421.192 233.151C422.814 233.042 424.701 232.916 427.073 232.756C428.04 234.12 429.075 235.582 429.691 236.451C433.46 237.664 435.288 236.451 436.399 233.962C436.38 231.253 434.983 229.764 432.849 228.844C431.041 228.064 429.146 227.469 427.39 226.59C421.612 223.698 419.61 216.433 422.803 210.894C425.463 206.278 433.641 204.143 437.913 207.788C438.996 208.711 440.245 209.44 441.674 210.438Z" fill="white"/>
<path fill-rule="evenodd" clip-rule="evenodd" d="M255.995 228.412C252.441 231.538 247.67 226.049 244.049 230.801C244.049 231.863 244.049 233.574 244.049 235.262C247.405 238.562 251.246 236.379 254.759 236.35C257.176 238.205 256.699 240.447 256.174 242.682C252.235 243.891 242.695 244.076 237.036 243.095C235.871 239.42 235.573 214.399 236.617 207.96C240.307 206.72 249.355 206.493 256.081 207.564C256.081 209.46 256.081 211.438 256.081 213.877C252.078 213.877 248.414 213.877 244.23 213.877C244.23 216.511 244.23 218.693 244.23 221.516C248.185 221.822 252.005 222.118 255.995 222.426C255.995 224.578 255.995 226.473 255.995 228.412Z" fill="white"/>
<path fill-rule="evenodd" clip-rule="evenodd" d="M291.09 235.48C295.073 235.947 298.007 236.289 301.401 236.685C301.56 238.894 301.695 240.757 301.865 243.112C295.829 244.133 290.194 243.56 284.693 243.548C283.308 239.625 282.894 216.402 284.009 207.523C286.073 207.523 288.215 207.523 291.09 207.523C291.09 216.767 291.09 225.813 291.09 235.48Z" fill="white"/>
<path fill-rule="evenodd" clip-rule="evenodd" d="M356.014 261.805C352.503 267.289 351.457 273.8 347.191 279.504C342.235 274.335 341.182 267.567 337.838 261.673C337.468 267.339 337.145 272.613 336.73 277.88C336.705 278.196 335.944 278.456 335.151 278.999C333.461 276.244 334.337 273.358 334.2 270.667C334.054 267.808 334.034 264.927 334.205 262.071C334.37 259.336 333.247 256.329 335.472 253.911C338.419 253.443 339.239 255.292 340.078 257.422C342.03 262.369 344.15 267.251 346.728 273.418C349.817 266.584 352.358 260.959 355.067 254.963C356.369 254.675 357.878 254.342 360.045 253.862C360.045 261.383 360.057 268.498 360.037 275.613C360.032 277.111 359.606 278.379 357.369 278.907C356.098 273.132 357.367 267.408 356.014 261.805Z" fill="white"/>
<path fill-rule="evenodd" clip-rule="evenodd" d="M328.026 243.633C328.026 231.203 328.026 219.604 328.026 207.352C330.164 207.237 332.194 207.128 334.111 207.025C335.496 210.996 335.881 235.101 334.719 243.276C332.821 243.378 330.79 243.486 328.026 243.633Z" fill="white"/>
<path fill-rule="evenodd" clip-rule="evenodd" d="M417.48 277.245C411.715 279.707 407.019 279.465 402.258 277.477C396.776 272.377 395.173 266.891 397.6 261.293C399.741 256.354 405.923 252.737 411.066 253.414C415.967 254.06 419.751 257.044 420.767 261.695C419.172 260.967 417.758 260.685 416.86 259.849C413.331 256.568 409.467 255.357 405.127 257.857C400.729 260.391 399.3 264.426 400.167 269.344C400.197 269.518 400.282 269.682 400.341 269.851C406.701 277.937 412.382 278.233 418.411 270.057C414.033 269.924 410.156 269.807 405.3 269.66C406.621 268.186 407.154 267.013 407.902 266.853C412.632 265.844 417.381 266.158 422.348 266.637C422.558 271.727 420.18 274.87 417.48 277.245Z" fill="white"/>
<path fill-rule="evenodd" clip-rule="evenodd" d="M229.752 278.236C229.496 270.483 229.613 262.885 229.707 255.134C234.401 253.902 238.697 253.997 242.85 254.808C247.185 255.655 250.859 260.86 251.16 265.6C251.471 270.507 248.263 276.271 243.906 277.761C239.682 279.208 235.279 280.043 229.752 278.236ZM233.267 258.141C233.267 264.025 233.267 269.627 233.267 275.442C238.186 276.377 242.548 276.541 245.509 272.061C247.864 268.501 247.573 264.668 245.502 261.143C242.591 256.189 237.977 257.63 233.267 258.141Z" fill="white"/>
<path fill-rule="evenodd" clip-rule="evenodd" d="M148.218 257.062C158.486 251.214 164.362 252.531 170.035 261.763C170.96 270.999 169.277 275.574 163.833 277.964C158.738 280.202 152.259 279.754 147.704 274.465C143.451 269.525 143.404 265.431 148.218 257.062ZM166.77 262.856C164.104 258.027 160.653 255.524 155.496 256.799C150.459 258.043 148.294 261.726 147.789 266.501C149.923 273.956 153.8 276.91 159.947 275.869C165.464 274.934 167.539 270.966 166.77 262.856Z" fill="white"/>
<path fill-rule="evenodd" clip-rule="evenodd" d="M444.405 276.493C443.384 277.734 442.985 278.657 442.559 278.669C438.497 278.778 434.429 278.734 430.453 278.734C428.438 274.177 428.491 265.55 430.584 253.947C434.878 254.202 439.214 254.46 443.919 254.739C442.449 256.746 442.041 256.877 433.855 258.316C433.855 260.252 433.855 262.275 433.855 264.742C437.084 265.004 440.217 265.259 443.909 265.558C441.418 269.983 437.103 267.398 433.847 269.276C433.847 271.037 433.847 273.063 433.847 275.608C435.688 275.73 437.418 275.827 439.147 275.967C440.639 276.089 442.128 276.263 444.405 276.493Z" fill="white"/>
<path fill-rule="evenodd" clip-rule="evenodd" d="M108.097 277.865C103.702 279.749 99.273 279.411 94.978 278.748C93.577 274.542 93.267 263.06 94.201 255.424C98.153 252.765 99.566 252.747 108.697 255.39C105.606 259.383 100.855 256.624 96.996 258.883C97.457 260.678 97.963 262.651 98.513 264.79C101.614 265.054 104.396 265.289 107.771 265.574C105.637 270.066 101.626 267.439 98.671 269.206C98.311 270.848 97.867 272.879 97.394 275.042C100.781 277.261 105.059 274.498 108.097 277.865Z" fill="white"/>
<path fill-rule="evenodd" clip-rule="evenodd" d="M138.997 261.066C137.166 260.424 136.113 260.285 135.336 259.746C127.348 254.208 121.749 256.104 118.759 265.647C119.157 267.335 119.606 269.24 120.03 271.043C122.909 275.463 126.899 276.682 131.718 275.67C136.488 272.047 136.488 272.047 139.444 272.345C137.41 277.592 131.902 280.281 125.6 279.104C120.377 278.128 115.265 271.641 115.358 266.109C115.457 260.292 120.577 254.569 126.675 253.462C131.938 252.505 136.572 255.053 138.997 261.066Z" fill="white"/>
<path fill-rule="evenodd" clip-rule="evenodd" d="M390.642 279.032C386.678 277.787 386.571 273.713 384.064 271.005C381.126 271.005 377.816 271.005 374.524 271.005C372.144 273.366 372.609 277.798 368.353 278.907C367.069 275.384 369.994 273.231 370.778 270.537C371.565 267.83 372.883 265.27 374.038 262.677C375.256 259.936 376.553 257.231 377.574 255.031C380.21 254.041 381.428 254.909 382.16 256.575C385.163 263.416 388.137 270.27 391.065 277.142C391.223 277.513 390.865 278.105 390.642 279.032ZM383.13 266.986C381.827 264.175 380.875 262.119 379.922 260.063C379.546 260.108 379.17 260.154 378.795 260.199C378.101 262.367 377.408 264.534 376.521 267.31C378.849 267.197 380.518 267.115 383.13 266.986Z" fill="white"/>
<path fill-rule="evenodd" clip-rule="evenodd" d="M198.577 253.746C203.834 255.073 208.537 253.387 213.413 255.579C209.851 259.312 205.534 256.348 201.692 258.764C202.011 260.581 202.376 262.667 202.766 264.891C206.089 264.891 208.721 264.891 211.547 264.891C212.482 267.409 211.119 268.169 209.119 268.366C207.348 268.541 205.56 268.551 203.232 268.658C202.82 270.885 202.419 273.054 202.043 275.084C205.564 277.284 209.881 274.258 212.918 277.567C209.48 279.587 204.949 279.823 198.949 278.244C197.804 270.504 198.422 262.573 198.577 253.746Z" fill="white"/>
<path fill-rule="evenodd" clip-rule="evenodd" d="M263.402 269.171C263.402 271.14 263.402 273.033 263.402 274.857C266.347 277.554 270.902 274.111 274.236 278.235C269.41 279.89 265.103 279.078 260.944 279.051C258.882 273.283 258.891 259.751 260.875 254.217C264.992 254.217 269.122 254.217 274.021 254.217C271.635 259.735 266.938 256.404 263.414 258.613C263.334 260.09 263.226 262.113 263.083 264.747C266.687 264.747 269.861 264.747 273.663 264.747C271.407 269.95 267.043 267.605 263.402 269.171Z" fill="white"/>
<path fill-rule="evenodd" clip-rule="evenodd" d="M291.641 254.129C294.163 260.983 292.576 268.145 293.549 274.922C296.619 277.178 300.587 274.597 303.394 277.23C300.678 279.584 297.765 279.877 290.315 278.516C289.976 270.447 289.351 262.278 291.641 254.129Z" fill="white"/>
<path fill-rule="evenodd" clip-rule="evenodd" d="M179.302 253.448C182.351 257.192 180.826 261.027 181.086 264.53C181.345 268.037 181.143 271.578 181.143 274.767C184.552 277.127 188.478 274.61 191.279 277.239C188.499 279.626 184.412 279.928 178.931 278.301C177.882 275.265 177.236 262.299 177.953 256.651C178.072 255.716 178.696 254.845 179.302 253.448Z" fill="white"/>
<path fill-rule="evenodd" clip-rule="evenodd" d="M69.01 255.052C69.01 261.763 69.01 268.472 69.01 274.67C72.622 277.346 76.855 274.239 79.652 277.474C76.657 279.606 72.655 279.864 66.33 278.267C65.472 270.499 65.077 262.617 67.065 254.824C67.714 254.9 68.362 254.977 69.01 255.052Z" fill="white"/>
<path fill-rule="evenodd" clip-rule="evenodd" d="M320.672 279.356C320.056 278.543 319.32 278.022 319.317 277.497C319.26 270.163 319.28 262.827 319.377 255.493C319.385 254.965 320.137 254.445 320.851 253.524C321.465 254.643 322.201 255.363 322.206 256.089C322.26 263.249 322.219 270.41 322.106 277.57C322.099 278.077 321.327 278.571 320.672 279.356Z" fill="white"/>
<path fill-rule="evenodd" clip-rule="evenodd" d="M304.256 261.81C306.593 254.48 306.593 254.48 310.364 254.658C308.638 257.229 309.299 261.23 304.256 261.81Z" fill="white"/>
</svg>
